<svg xmlns="http://www.w3.org/2000/svg" width="1280" height="1700" viewBox="0 0 1280 1700">
<rect width="100%" height="100%" fill="#FFFFFF"/>
<defs>
  <marker id="arrow" markerWidth="9" markerHeight="9" refX="7" refY="4.5" orient="auto" markerUnits="strokeWidth">
    <path d="M 0 0 L 9 4.5 L 0 9 z" fill="#6B7280" opacity="0.95"/>
  </marker>
  <style>
    .title { font: 700 24px 'PingFang SC','Microsoft YaHei','Noto Sans SC',sans-serif; fill: #1F2937; }
    .subtitle { font: 500 13px 'PingFang SC','Microsoft YaHei','Noto Sans SC',sans-serif; fill: #6B7280; }
    .panel { fill: #FAFBFA; stroke: #D1D5DB; stroke-width: 1.8; }
    .section-title { font: 700 17px 'PingFang SC','Microsoft YaHei','Noto Sans SC',sans-serif; fill: #1F2937; }
    .node-text { font: 600 13px 'PingFang SC','Microsoft YaHei','Noto Sans SC',sans-serif; text-anchor: middle; dominant-baseline: middle; }
    .connector { stroke: #6B7280; stroke-width: 2; fill: none; stroke-linecap: round; marker-end: url(#arrow); }
  </style>
</defs>
<text x="640.0" y="42" text-anchor="middle" class="title">IoT 数据采集与可信处理流程图</text>
<text x="640.0" y="70" text-anchor="middle" class="subtitle">从真实设备接入到链上存证与展示输出的关键流程</text>
<rect x="60" y="110" width="1160" height="470" rx="18" ry="18" class="panel"/>
<rect x="60" y="620" width="1160" height="360" rx="18" ry="18" class="panel"/>
<rect x="60" y="1020" width="1160" height="260" rx="18" ry="18" class="panel"/>
<text x="640.0" y="140" text-anchor="middle" class="section-title">设备接入与数据生成阶段</text>
<text x="640.0" y="650" text-anchor="middle" class="section-title">可信处理与自动监测阶段</text>
<text x="640.0" y="1050" text-anchor="middle" class="section-title">存证与应用输出阶段</text>
<rect x="425.0" y="180" width="430" height="68" rx="16" ry="16" fill="#E8F3EC" stroke="#2E6B4F" stroke-width="2.2"/>
<text x="640.0" y="215.0" class="node-text" fill="#123524">真实光伏设备接入</text>
<rect x="425.0" y="290" width="430" height="68" rx="16" ry="16" fill="#E8F3EC" stroke="#2E6B4F" stroke-width="2.2"/>
<text x="640.0" y="325.0" class="node-text" fill="#123524">Modbus / RS485 通信读取</text>
<rect x="425.0" y="400" width="430" height="68" rx="16" ry="16" fill="#E8F3EC" stroke="#2E6B4F" stroke-width="2.2"/>
<text x="640.0" y="435.0" class="node-text" fill="#123524">关键字段解析与结构化提取</text>
<rect x="425.0" y="510" width="430" height="68" rx="16" ry="16" fill="#E8F3EC" stroke="#2E6B4F" stroke-width="2.2"/>
<text x="640.0" y="545.0" class="node-text" fill="#123524">时间戳与设备标识补全</text>
<rect x="425.0" y="690" width="430" height="68" rx="16" ry="16" fill="#EAF0F8" stroke="#355C8A" stroke-width="2.2"/>
<text x="640.0" y="725.0" class="node-text" fill="#17324D">签名处理与可信封装</text>
<rect x="425.0" y="800" width="430" height="68" rx="16" ry="16" fill="#EAF0F8" stroke="#355C8A" stroke-width="2.2"/>
<text x="640.0" y="835.0" class="node-text" fill="#17324D">本地记录与CSV落盘</text>
<rect x="425.0" y="910" width="430" height="68" rx="16" ry="16" fill="#EAF0F8" stroke="#355C8A" stroke-width="2.2"/>
<text x="640.0" y="945.0" class="node-text" fill="#17324D">自动监测图表生成</text>
<rect x="425.0" y="1095" width="430" height="68" rx="16" ry="16" fill="#EAF0F8" stroke="#355C8A" stroke-width="2.2"/>
<text x="640.0" y="1130.0" class="node-text" fill="#17324D">联盟链存证写入</text>
<rect x="425.0" y="1235" width="430" height="68" rx="16" ry="16" fill="#F7F3EA" stroke="#A46A1F" stroke-width="2.2"/>
<text x="640.0" y="1270.0" class="node-text" fill="#5C3A10">前端与报告输出</text>
<line x1="640.0" y1="248" x2="640.0" y2="276" class="connector"/>
<line x1="640.0" y1="358" x2="640.0" y2="386" class="connector"/>
<line x1="640.0" y1="468" x2="640.0" y2="496" class="connector"/>
<line x1="640.0" y1="578" x2="640.0" y2="676" class="connector"/>
<line x1="640.0" y1="758" x2="640.0" y2="786" class="connector"/>
<line x1="640.0" y1="868" x2="640.0" y2="896" class="connector"/>
<line x1="640.0" y1="978" x2="640.0" y2="1081" class="connector"/>
<line x1="640.0" y1="1163" x2="640.0" y2="1221" class="connector"/>
<rect x="180" y="1510" width="920" height="90" rx="16" ry="16" fill="#FFFFFF" stroke="#D1D5DB" stroke-width="1.6"/>
<text x="640" y="1546" text-anchor="middle" style="font:700 14px PingFang SC,Microsoft YaHei,Noto Sans SC,sans-serif; fill:#1F2937;">流程图说明</text>
<text x="640" y="1576" text-anchor="middle" style="font:500 12px PingFang SC,Microsoft YaHei,Noto Sans SC,sans-serif; fill:#6B7280;">系统先完成设备接入与结构化采集，再进行可信封装与自动监测，最终进入联盟链存证与前端展示输出。</text>
</svg>