<svg xmlns="http://www.w3.org/2000/svg" width="1280" height="1680" viewBox="0 0 1280 1680">
<rect width="100%" height="100%" fill="#FFFFFF"/>
<defs>
  <marker id="arrow" markerWidth="9" markerHeight="9" refX="7" refY="4.5" orient="auto" markerUnits="strokeWidth">
    <path d="M 0 0 L 9 4.5 L 0 9 z" fill="#6B7280" opacity="0.95"/>
  </marker>
  <style>
    .title { font: 700 24px 'PingFang SC','Microsoft YaHei','Noto Sans SC',sans-serif; fill: #1F2937; }
    .subtitle { font: 500 13px 'PingFang SC','Microsoft YaHei','Noto Sans SC',sans-serif; fill: #6B7280; }
    .panel { fill: #FAFBFA; stroke: #D1D5DB; stroke-width: 1.8; }
    .section-title { font: 700 17px 'PingFang SC','Microsoft YaHei','Noto Sans SC',sans-serif; fill: #1F2937; }
    .node-title { font: 700 15px 'PingFang SC','Microsoft YaHei','Noto Sans SC',sans-serif; text-anchor: middle; }
    .node-text { font: 500 12px 'PingFang SC','Microsoft YaHei','Noto Sans SC',sans-serif; text-anchor: middle; fill: #4B5563; }
    .connector { stroke: #6B7280; stroke-width: 2; fill: none; stroke-linecap: round; marker-end: url(#arrow); }
  </style>
</defs>
<text x="640.0" y="42" text-anchor="middle" class="title">产品功能模块图</text>
<text x="640.0" y="70" text-anchor="middle" class="subtitle">SolarGuard 围绕可信数据采集、存证、展示与场景服务形成六大核心模块</text>
<rect x="260" y="120" width="760" height="150" rx="22" ry="22" fill="#FFFFFF" stroke="#2E6B4F" stroke-width="2.2"/>
<text x="640.0" y="175" text-anchor="middle" style="font:700 28px PingFang SC,Microsoft YaHei,Noto Sans SC,sans-serif; fill:#2E6B4F;">SolarGuard</text>
<text x="640.0" y="210" text-anchor="middle" style="font:600 16px PingFang SC,Microsoft YaHei,Noto Sans SC,sans-serif; fill:#1F2937;">分布式光伏可信存证与绿色资产服务平台</text>
<text x="640.0" y="240" text-anchor="middle" style="font:500 13px PingFang SC,Microsoft YaHei,Noto Sans SC,sans-serif; fill:#6B7280;">从真实设备采集到业务场景服务的整链路功能闭环</text>
<rect x="70" y="340" width="1140" height="500" rx="18" ry="18" class="panel"/>
<text x="640" y="372" text-anchor="middle" class="section-title">核心产品能力</text>
<rect x="70" y="900" width="1140" height="320" rx="18" ry="18" class="panel"/>
<text x="640" y="932" text-anchor="middle" class="section-title">场景延伸能力</text>
<rect x="140" y="430" width="250" height="130" rx="18" ry="18" fill="#E8F3EC" stroke="#2E6B4F" stroke-width="2.2"/>
<text x="265.0" y="466" class="node-title" fill="#123524">硬件数据采集</text>
<text x="265.0" y="502" class="node-text">连接光伏控制器</text>
<text x="265.0" y="524" class="node-text">读取功率、电压、电量等关键指标</text>
<rect x="515" y="430" width="250" height="130" rx="18" ry="18" fill="#E8F3EC" stroke="#2E6B4F" stroke-width="2.2"/>
<text x="640.0" y="466" class="node-title" fill="#123524">数据签名与可信封装</text>
<text x="640.0" y="502" class="node-text">结构化处理原始数据</text>
<text x="640.0" y="524" class="node-text">形成可验证的可信记录</text>
<rect x="890" y="430" width="250" height="130" rx="18" ry="18" fill="#EAF0F8" stroke="#355C8A" stroke-width="2.2"/>
<text x="1015.0" y="466" class="node-title" fill="#17324D">联盟链存证</text>
<text x="1015.0" y="502" class="node-text">关键数据上链</text>
<text x="1015.0" y="524" class="node-text">支持查询、追溯与留痕</text>
<rect x="140" y="650" width="250" height="130" rx="18" ry="18" fill="#EAF0F8" stroke="#355C8A" stroke-width="2.2"/>
<text x="265.0" y="686" class="node-title" fill="#17324D">自动监测与告警</text>
<text x="265.0" y="722" class="node-text">周期采样、图表生成</text>
<text x="265.0" y="744" class="node-text">消息推送与异常提醒</text>
<rect x="515" y="650" width="250" height="130" rx="18" ry="18" fill="#EAF0F8" stroke="#355C8A" stroke-width="2.2"/>
<text x="640.0" y="686" class="node-title" fill="#17324D">API 与前端可视化</text>
<text x="640.0" y="722" class="node-text">对外接口服务</text>
<text x="640.0" y="744" class="node-text">承接仪表盘与数据展示</text>
<rect x="890" y="650" width="250" height="130" rx="18" ry="18" fill="#EAF0F8" stroke="#355C8A" stroke-width="2.2"/>
<text x="1015.0" y="686" class="node-title" fill="#17324D">历史记录与报告输出</text>
<text x="1015.0" y="722" class="node-text">沉淀运行记录</text>
<text x="1015.0" y="744" class="node-text">输出摘要报告与分析依据</text>
<rect x="270" y="1010" width="280" height="130" rx="18" ry="18" fill="#F7F3EA" stroke="#A46A1F" stroke-width="2.2"/>
<text x="410.0" y="1046" class="node-title" fill="#5C3A10">绿色资产服务原型</text>
<text x="410.0" y="1082" class="node-text">围绕绿证、ESG、绿色金融辅助决策</text>
<text x="410.0" y="1104" class="node-text">探索可信数据的高价值应用场景</text>
<rect x="730" y="1010" width="280" height="130" rx="18" ry="18" fill="#F7F3EA" stroke="#A46A1F" stroke-width="2.2"/>
<text x="870.0" y="1046" class="node-title" fill="#5C3A10">多场景业务衔接</text>
<text x="870.0" y="1082" class="node-text">服务分布式光伏运维、园区能源管理</text>
<text x="870.0" y="1104" class="node-text">审计核验与绿色治理需求</text>
<line x1="640" y1="270" x2="265" y2="405" class="connector"/>
<line x1="640" y1="270" x2="640" y2="405" class="connector"/>
<line x1="640" y1="270" x2="1015" y2="405" class="connector"/>
<line x1="390" y1="495" x2="515" y2="495" stroke="#6B7280" stroke-width="2"/>
<line x1="765" y1="495" x2="890" y2="495" stroke="#6B7280" stroke-width="2"/>
<line x1="390" y1="715" x2="515" y2="715" stroke="#6B7280" stroke-width="2"/>
<line x1="765" y1="715" x2="890" y2="715" stroke="#6B7280" stroke-width="2"/>
<line x1="640" y1="560" x2="640" y2="635" class="connector"/>
<line x1="640" y1="780" x2="640" y2="965" class="connector"/>
<line x1="550" y1="1075" x2="730" y2="1075" stroke="#6B7280" stroke-width="2"/>
</svg>