<svg xmlns="http://www.w3.org/2000/svg" width="1280" height="1960" viewBox="0 0 1280 1960">
<rect width="100%" height="100%" fill="#FFFFFF"/>
<defs>
  <marker id="arrow" markerWidth="9" markerHeight="9" refX="7" refY="4.5" orient="auto" markerUnits="strokeWidth">
    <path d="M 0 0 L 9 4.5 L 0 9 z" fill="#6B7280" opacity="0.95"/>
  </marker>
  <style>
    .title { font: 700 24px 'PingFang SC','Microsoft YaHei','Noto Sans SC',sans-serif; fill: #1F2937; }
    .subtitle { font: 500 13px 'PingFang SC','Microsoft YaHei','Noto Sans SC',sans-serif; fill: #6B7280; }
    .panel { fill: #FAFBFA; stroke: #D1D5DB; stroke-width: 1.8; }
    .section-title { font: 700 17px 'PingFang SC','Microsoft YaHei','Noto Sans SC',sans-serif; fill: #1F2937; }
    .node-text { font: 600 13px 'PingFang SC','Microsoft YaHei','Noto Sans SC',sans-serif; text-anchor: middle; dominant-baseline: middle; }
    .connector { stroke: #6B7280; stroke-width: 2; fill: none; stroke-linecap: round; marker-end: url(#arrow); }
  </style>
</defs>
<text x="640.0" y="42" text-anchor="middle" class="title">IoT 数据采集与可信处理流程图</text>
<text x="640.0" y="70" text-anchor="middle" class="subtitle">从真实设备接入到链上存证与展示输出的关键流程</text>
<rect x="60" y="110" width="1160" height="520" rx="18" ry="18" class="panel"/>
<rect x="60" y="670" width="1160" height="520" rx="18" ry="18" class="panel"/>
<rect x="60" y="1230" width="1160" height="520" rx="18" ry="18" class="panel"/>
<text x="640.0" y="138" text-anchor="middle" class="section-title">设备接入与数据生成阶段</text>
<text x="640.0" y="698" text-anchor="middle" class="section-title">可信处理与自动监测阶段</text>
<text x="640.0" y="1258" text-anchor="middle" class="section-title">存证与应用输出阶段</text>
<rect x="450.0" y="190" width="380" height="72" rx="16" ry="16" fill="#E8F3EC" stroke="#2E6B4F" stroke-width="2.2"/>
<text x="640.0" y="227.0" class="node-text" fill="#123524">真实光伏设备接入</text>
<rect x="450.0" y="305" width="380" height="72" rx="16" ry="16" fill="#E8F3EC" stroke="#2E6B4F" stroke-width="2.2"/>
<text x="640.0" y="342.0" class="node-text" fill="#123524">Modbus / RS485 通信读取</text>
<rect x="450.0" y="420" width="380" height="72" rx="16" ry="16" fill="#E8F3EC" stroke="#2E6B4F" stroke-width="2.2"/>
<text x="640.0" y="457.0" class="node-text" fill="#123524">关键字段解析与结构化提取</text>
<rect x="450.0" y="535" width="380" height="72" rx="16" ry="16" fill="#E8F3EC" stroke="#2E6B4F" stroke-width="2.2"/>
<text x="640.0" y="572.0" class="node-text" fill="#123524">时间戳与设备标识补全</text>
<rect x="450.0" y="750" width="380" height="72" rx="16" ry="16" fill="#EAF0F8" stroke="#355C8A" stroke-width="2.2"/>
<text x="640.0" y="787.0" class="node-text" fill="#17324D">签名处理与可信封装</text>
<rect x="450.0" y="865" width="380" height="72" rx="16" ry="16" fill="#EAF0F8" stroke="#355C8A" stroke-width="2.2"/>
<text x="640.0" y="902.0" class="node-text" fill="#17324D">本地记录与CSV落盘</text>
<rect x="450.0" y="980" width="380" height="72" rx="16" ry="16" fill="#EAF0F8" stroke="#355C8A" stroke-width="2.2"/>
<text x="640.0" y="1017.0" class="node-text" fill="#17324D">自动监测图表生成</text>
<rect x="450.0" y="1310" width="380" height="72" rx="16" ry="16" fill="#EAF0F8" stroke="#355C8A" stroke-width="2.2"/>
<text x="640.0" y="1347.0" class="node-text" fill="#17324D">联盟链存证写入</text>
<rect x="450.0" y="1490" width="380" height="72" rx="16" ry="16" fill="#F7F3EA" stroke="#A46A1F" stroke-width="2.2"/>
<text x="640.0" y="1527.0" class="node-text" fill="#5C3A10">前端与报告输出</text>
<line x1="640.0" y1="262" x2="640.0" y2="291" class="connector"/>
<line x1="640.0" y1="377" x2="640.0" y2="406" class="connector"/>
<line x1="640.0" y1="492" x2="640.0" y2="521" class="connector"/>
<line x1="640.0" y1="607" x2="640.0" y2="736" class="connector"/>
<line x1="640.0" y1="822" x2="640.0" y2="851" class="connector"/>
<line x1="640.0" y1="937" x2="640.0" y2="966" class="connector"/>
<line x1="640.0" y1="1052" x2="640.0" y2="1296" class="connector"/>
<line x1="640.0" y1="1382" x2="640.0" y2="1476" class="connector"/>
<rect x="780" y="860" width="360" height="54" rx="14" ry="14" fill="#FFFFFF" stroke="#D1D5DB" stroke-width="1.4"/>
<text x="960" y="889" class="node-text" fill="#4B5563">形成结构化、可追溯的原始数据记录</text>
<line x1="760" y1="887" x2="690" y2="887" stroke="#D1D5DB" stroke-width="1.6"/>
<rect x="780" y="1470" width="360" height="54" rx="14" ry="14" fill="#FFFFFF" stroke="#D1D5DB" stroke-width="1.4"/>
<text x="960" y="1499" class="node-text" fill="#4B5563">支撑前端展示、历史追溯与业务报告输出</text>
<line x1="760" y1="1497" x2="690" y2="1497" stroke="#D1D5DB" stroke-width="1.6"/>
</svg>